# This file uses centimeters as units for non-parametric coordinates.

mtllib zimmer.mtl
g default
v -12.761257 15.991619 12.242791
v 12.761257 15.991619 12.242791
v 12.761257 15.991619 -13.050761
v -12.761257 15.991619 -13.050761
v -12.761257 -0.397120 -13.050761
v -12.761257 -0.397120 12.242791
v -12.157384 15.491620 12.242791
v 12.157384 15.491620 12.242791
v 12.761257 -0.397120 12.242791
v 12.761257 -0.397120 -13.050761
v -6.583609 6.203503 -13.050761
v 6.583609 6.203503 -13.050761
v 6.583609 11.492994 -13.050761
v -6.583609 11.492994 -13.050761
v -12.157384 0.102880 12.242791
v -12.157384 15.491620 -12.550761
v 12.157384 15.491620 -12.550761
v 12.157384 0.102880 12.242791
v -12.157384 0.102880 -12.550761
v -6.583609 6.203503 -12.550761
v -6.583609 11.492994 -12.550761
v 6.583609 11.492994 -12.550761
v 6.583609 6.203503 -12.550761
v 12.157384 0.102880 -12.550761
vt -0.024720 1.045655
vt 1.024721 1.045655
vt 1.024721 2.095096
vt -0.024720 2.095096
vt -1.074161 -0.003785
vt -0.024720 -0.003785
vt -1.074161 1.045655
vt -0.024720 1.045655
vt 1.024721 1.045655
vt 1.024721 -0.003785
vt 2.074162 -0.003785
vt 2.074162 1.045655
vt 0.831219 2.564539
vt 0.168782 2.564539
vt 0.229294 2.721871
vt 0.164768 3.043849
vt 0.964209 2.963161
vt 0.641731 2.641184
vt 1.024721 4.193978
vt -0.024720 4.193978
vt -0.024720 -0.003785
vt -0.024720 2.095096
vt 1.024721 2.095096
vt 1.024721 -0.003785
vt 1.024721 4.193978
vt -0.024720 4.193978
vt -1.074161 -0.003785
vt -1.074161 1.045655
vt 0.591462 2.552824
vt 0.648771 2.728503
vt 0.215848 2.642572
vt 0.167972 2.959497
vt 0.967413 3.045429
vt 0.408539 2.552824
vt 2.074162 1.045655
vt 2.074162 -0.003785
vt 1.024721 1.076746
vt -0.024720 1.076746
vt -0.024720 1.399795
vt 1.024721 1.399795
vt 1.055812 -0.003785
vt 1.055812 1.045655
vt 1.378861 1.045655
vt 1.378861 -0.003785
vt -0.378860 -0.003785
vt -0.378860 1.045655
vt -0.055811 1.045655
vt -0.055811 -0.003785
vt 1.024721 3.839838
vt -0.024720 3.839838
vt -0.024720 4.162888
vt 1.024721 4.162888
vt 2.598881 2.095096
vt -1.598882 2.095096
vt 2.598881 2.095096
vt -1.598882 2.095096
vn 0.000000 1.000000 0.000000
vn 0.000000 1.000000 0.000000
vn 0.000000 1.000000 0.000000
vn 0.000000 1.000000 0.000000
vn -1.000000 0.000000 0.000000
vn -1.000000 0.000000 0.000000
vn -1.000000 0.000000 0.000000
vn -1.000000 0.000000 0.000000
vn 0.000003 0.000000 1.000000
vn -0.000002 0.000000 1.000000
vn 0.000003 0.000000 1.000000
vn -0.000002 0.000000 1.000000
vn 1.000000 0.000000 0.000000
vn 1.000000 0.000000 0.000000
vn 1.000000 0.000000 0.000000
vn 1.000000 0.000000 0.000000
vn 0.000000 0.000000 -1.000000
vn 0.000000 0.000000 -1.000000
vn 0.000000 0.000000 -1.000000
vn 0.000000 0.000000 -1.000000
vn -0.000000 0.000000 -1.000000
vn -0.000000 0.000000 -1.000000
vn -0.000000 0.000000 -1.000000
vn -0.000000 0.000000 -1.000000
vn 0.000000 -1.000000 0.000000
vn 0.000000 -1.000000 0.000000
vn 0.000000 -1.000000 0.000000
vn 0.000000 -1.000000 0.000000
vn -0.000000 0.000000 1.000000
vn -0.000000 0.000000 1.000000
vn 0.000000 -1.000000 0.000000
vn 0.000000 -1.000000 0.000000
vn 0.000000 -1.000000 0.000000
vn 0.000000 -1.000000 0.000000
vn -0.000000 0.000000 1.000000
vn 0.000000 0.000000 1.000000
vn 1.000000 0.000000 0.000000
vn 1.000000 0.000000 0.000000
vn 1.000000 0.000000 0.000000
vn 1.000000 0.000000 0.000000
vn 0.000000 0.000000 1.000000
vn 0.000000 0.000000 1.000000
vn 0.000000 0.000000 1.000000
vn 0.000000 0.000000 1.000000
vn 0.000000 0.000000 1.000000
vn 0.000000 0.000000 1.000000
vn 0.000000 0.000000 1.000000
vn 0.000000 0.000000 1.000000
vn -1.000000 0.000000 0.000000
vn -1.000000 0.000000 0.000000
vn -1.000000 0.000000 0.000000
vn -1.000000 0.000000 0.000000
vn 0.000000 1.000000 0.000000
vn 0.000000 1.000000 0.000000
vn 0.000000 1.000000 0.000000
vn 0.000000 1.000000 0.000000
vn 0.000000 -1.000000 0.000000
vn 0.000000 -1.000000 0.000000
vn 0.000000 -1.000000 0.000000
vn 0.000000 -1.000000 0.000000
vn -1.000000 0.000000 0.000000
vn -1.000000 0.000000 0.000000
vn -1.000000 0.000000 0.000000
vn -1.000000 0.000000 0.000000
vn 1.000000 0.000000 0.000000
vn 1.000000 0.000000 0.000000
vn 1.000000 0.000000 0.000000
vn 1.000000 0.000000 0.000000
vn 0.000000 1.000000 0.000000
vn 0.000000 1.000000 0.000000
vn 0.000000 1.000000 0.000000
vn 0.000000 1.000000 0.000000
s 1
g pCube3
usemtl lambert4SG
f 1/1/1 2/2/2 4/4/3
f 4/4/3 2/2/2 3/3/4
s 2
f 5/5/5 6/6/6 4/7/7
f 4/7/7 6/6/6 1/1/8
s 3
usemtl lambert3SG
f 7/8/9 8/9/10 1/1/11
f 1/1/11 8/9/10 2/2/12
s 4
usemtl lambert4SG
f 9/10/13 10/11/14 2/2/15
f 2/2/15 10/11/14 3/12/16
s 5
f 3/3/17 10/13/18 13/17/19
f 13/17/19 10/13/18 12/16/20
f 10/13/18 5/14/21 12/16/20
f 5/14/21 11/15/22 12/16/20
f 5/14/21 4/4/23 11/15/22
f 11/15/22 4/4/23 14/18/24
f 4/4/23 3/3/17 14/18/24
f 3/3/17 13/17/19 14/18/24
s 6
usemtl initialShadingGroup
f 5/14/25 10/13/26 6/20/27
f 6/20/27 10/13/26 9/19/28
s 3
usemtl lambert3SG
f 15/21/29 7/8/9 6/6/30
f 6/6/30 7/8/9 1/1/11
s 7
usemtl lambert6SG
f 7/8/31 16/22/32 8/9/33
f 8/9/33 16/22/32 17/23/34
s 3
usemtl lambert3SG
f 8/9/10 18/24/35 2/2/12
f 2/2/12 18/24/35 9/10/36
f 18/25/35 15/26/29 9/19/36
f 9/19/36 15/26/29 6/20/30
s 8
f 19/27/37 16/28/38 15/21/39
f 15/21/39 16/28/38 7/8/40
s 9
f 19/29/41 20/30/42 16/22/43
f 20/30/42 21/31/44 16/22/43
f 16/22/43 21/31/44 17/23/45
f 21/31/44 22/32/46 17/23/45
f 17/23/45 22/32/46 24/34/47
f 22/32/46 23/33/48 24/34/47
f 19/29/41 24/34/47 20/30/42
f 23/33/48 20/30/42 24/34/47
s 10
f 18/24/49 8/9/50 24/36/51
f 24/36/51 8/9/50 17/35/52
s 11
usemtl lambert2SG
f 19/53/53 15/54/54 24/55/55
f 24/55/55 15/54/54 18/56/56
s 12
usemtl initialShadingGroup
f 22/37/57 21/38/58 13/40/59
f 13/40/59 21/38/58 14/39/60
s 13
f 23/41/61 22/42/62 12/44/63
f 12/44/63 22/42/62 13/43/64
s 14
f 11/45/65 14/46/66 20/48/67
f 20/48/67 14/46/66 21/47/68
s 15
f 12/49/69 11/50/70 23/52/71
f 23/52/71 11/50/70 20/51/72
g default
v -7.026007 5.548429 -12.425263
v -5.993274 6.311868 -12.425263
v -5.993274 11.366976 -12.425263
v -0.235363 11.366976 -12.425263
v -0.235363 6.311868 -12.425263
v 0.431069 6.311868 -12.425263
v 0.431069 11.366976 -12.425263
v 6.005619 11.366976 -12.425263
v 7.178599 12.114167 -12.425263
v -7.026007 12.114167 -12.425263
v 6.005619 6.311868 -12.425263
v 7.178599 5.548429 -12.425263
v -7.026007 5.548429 -12.683068
v -7.026007 12.114167 -12.683068
v 7.178599 5.548429 -12.683068
v 7.178599 12.114167 -12.683068
v -5.993274 6.311868 -12.683068
v -0.235363 6.311868 -12.683068
v 0.431069 6.311868 -12.683068
v 6.005619 6.311868 -12.683068
v 6.005619 11.366976 -12.683068
v 0.431069 11.366976 -12.683068
v -0.235363 11.366976 -12.683068
v -5.993274 11.366976 -12.683068
vt 0.000000 0.000000
vt 0.115247 0.188581
vt 0.115247 0.854549
vt 0.466548 0.854549
vt 0.466548 0.188581
vt 0.552763 0.188581
vt 0.552763 0.854549
vt 0.885546 0.854549
vt 1.000000 1.000000
vt 0.000000 1.000000
vt 0.885546 0.188581
vt 1.000000 0.000000
vt -1.000000 0.000000
vt -1.000000 1.000000
vt 0.000000 3.000000
vt 1.000000 3.000000
vt 1.000000 4.000000
vt 0.000000 4.000000
vt 2.000000 0.000000
vt 2.000000 1.000000
vt 1.000000 2.000000
vt 0.000000 2.000000
vt 0.115247 2.811419
vt 0.466548 2.811419
vt 0.552763 2.811419
vt 0.885546 2.811419
vt 0.885546 2.145451
vt 0.552763 2.145451
vt 0.466548 2.145451
vt 0.115247 2.145451
vt -0.824182 0.000000
vt -0.824182 1.000000
vt -0.415163 1.000000
vt -0.415163 0.000000
vt 1.000000 3.175818
vt 0.000000 3.175818
vt 0.000000 3.584837
vt 1.000000 3.584837
vt 1.000000 1.415163
vt 0.000000 1.415163
vt 0.000000 1.824182
vt 1.000000 1.824182
vt 1.415163 0.000000
vt 1.415163 1.000000
vt 1.824182 1.000000
vt 1.824182 0.000000
vt -0.827839 0.000000
vt -0.827839 1.000000
vt -0.250936 1.000000
vt -0.250936 0.000000
vt 1.000000 3.172161
vt 0.000000 3.172161
vt 0.000000 3.749064
vt 1.000000 3.749064
vt 1.000000 1.250936
vt 0.000000 1.250936
vt 0.000000 1.827839
vt 1.000000 1.827839
vt 1.250936 0.000000
vt 1.250936 1.000000
vt 1.827839 1.000000
vt 1.827839 0.000000
vn 0.000000 0.000000 1.000000
vn 0.000000 0.000000 1.000000
vn 0.000000 0.000000 1.000000
vn 0.000000 0.000000 1.000000
vn 0.000000 0.000000 1.000000
vn 0.000000 0.000000 1.000000
vn 0.000000 0.000000 1.000000
vn 0.000000 0.000000 1.000000
vn 0.000000 0.000000 1.000000
vn 0.000000 0.000000 1.000000
vn -0.000000 0.000000 1.000000
vn -0.000000 0.000000 1.000000
vn -1.000000 0.000000 0.000000
vn -1.000000 0.000000 0.000000
vn -1.000000 0.000000 0.000000
vn -1.000000 0.000000 0.000000
vn 0.000000 -1.000000 0.000000
vn 0.000000 -1.000000 0.000000
vn 0.000000 -1.000000 0.000000
vn 0.000000 -1.000000 0.000000
vn 1.000000 0.000000 0.000000
vn 1.000000 0.000000 0.000000
vn 1.000000 0.000000 0.000000
vn 1.000000 0.000000 0.000000
vn 0.000000 1.000000 0.000000
vn 0.000000 1.000000 0.000000
vn 0.000000 1.000000 0.000000
vn 0.000000 1.000000 0.000000
vn -0.000000 0.000000 -1.000000
vn -0.000000 0.000000 -1.000000
vn 0.000000 0.000000 -1.000000
vn 0.000000 0.000000 -1.000000
vn 0.000000 0.000000 -1.000000
vn 0.000000 0.000000 -1.000000
vn 0.000000 0.000000 -1.000000
vn 0.000000 0.000000 -1.000000
vn -0.000000 0.000000 -1.000000
vn 0.000000 0.000000 -1.000000
vn 0.000000 0.000000 -1.000000
vn 0.000000 0.000000 -1.000000
vn 1.000000 0.000000 0.000000
vn 1.000000 0.000000 0.000000
vn 1.000000 0.000000 0.000000
vn 1.000000 0.000000 0.000000
vn 0.000000 1.000000 0.000000
vn 0.000000 1.000000 0.000000
vn 0.000000 1.000000 0.000000
vn 0.000000 1.000000 0.000000
vn 0.000000 -1.000000 0.000000
vn 0.000000 -1.000000 0.000000
vn 0.000000 -1.000000 0.000000
vn 0.000000 -1.000000 0.000000
vn -1.000000 0.000000 0.000000
vn -1.000000 0.000000 0.000000
vn -1.000000 0.000000 0.000000
vn -1.000000 0.000000 0.000000
vn 1.000000 0.000000 0.000000
vn 1.000000 0.000000 0.000000
vn 1.000000 0.000000 0.000000
vn 1.000000 0.000000 0.000000
vn 0.000000 1.000000 0.000000
vn 0.000000 1.000000 0.000000
vn 0.000000 1.000000 0.000000
vn 0.000000 1.000000 0.000000
vn 0.000000 -1.000000 0.000000
vn 0.000000 -1.000000 0.000000
vn 0.000000 -1.000000 0.000000
vn 0.000000 -1.000000 0.000000
vn -1.000000 0.000000 0.000000
vn -1.000000 0.000000 0.000000
vn -1.000000 0.000000 0.000000
vn -1.000000 0.000000 0.000000
s 1
g pCube7
usemtl lambert7SG
f 33/65/73 34/66/74 32/64/75
f 32/64/75 34/66/74 31/63/76
f 25/57/77 26/58/78 34/66/74
f 26/58/78 27/59/79 34/66/74
f 29/61/80 30/62/81 28/60/82
f 30/62/81 31/63/76 28/60/82
f 31/63/76 34/66/74 28/60/82
f 27/59/79 28/60/82 34/66/74
f 25/57/77 36/68/83 26/58/78
f 26/58/78 36/68/83 29/61/80
f 29/61/80 36/68/83 30/62/81
f 30/62/81 36/68/83 35/67/84
f 36/68/83 33/65/73 35/67/84
f 32/64/75 35/67/84 33/65/73
s 4
f 37/69/85 25/57/86 38/70/87
f 38/70/87 25/57/86 34/66/88
s 5
f 37/71/89 39/72/90 25/74/91
f 25/74/91 39/72/90 36/73/92
s 6
f 36/68/93 39/75/94 33/65/95
f 33/65/95 39/75/94 40/76/96
s 7
f 34/66/97 33/65/98 38/78/99
f 38/78/99 33/65/98 40/77/100
s 8
f 37/71/101 41/79/102 39/72/103
f 41/79/102 42/80/104 39/72/103
f 42/80/104 43/81/105 39/72/103
f 43/81/105 44/82/106 39/72/103
f 40/77/107 39/72/103 45/83/108
f 39/72/103 44/82/106 45/83/108
f 40/77/107 45/83/108 38/78/109
f 45/83/108 46/84/110 38/78/109
f 37/71/101 38/78/109 41/79/102
f 41/79/102 38/78/109 48/86/111
f 43/81/105 42/80/104 46/84/110
f 42/80/104 47/85/112 46/84/110
f 46/84/110 47/85/112 38/78/109
f 38/78/109 47/85/112 48/86/111
s 9
f 43/87/113 46/88/114 30/90/115
f 30/90/115 46/88/114 31/89/116
s 10
f 44/91/117 43/92/118 35/94/119
f 35/94/119 43/92/118 30/93/120
s 11
f 32/95/121 31/96/122 45/98/123
f 45/98/123 31/96/122 46/97/124
s 12
f 35/99/125 32/100/126 44/102/127
f 44/102/127 32/100/126 45/101/128
s 13
f 41/103/129 48/104/130 26/106/131
f 26/106/131 48/104/130 27/105/132
s 14
f 42/107/133 41/108/134 29/110/135
f 29/110/135 41/108/134 26/109/136
s 15
f 28/111/137 27/112/138 47/114/139
f 47/114/139 27/112/138 48/113/140
s 16
f 29/115/141 28/116/142 42/118/143
f 42/118/143 28/116/142 47/117/144
